{"accessors" : [{"bufferView" : 0, "byteOffset" : 0, "componentType" : 5123, "count" : 23664, "type" : "SCALAR", "max" : [23663], "min" : [0]}, {"bufferView" : 1, "byteOffset" : 0, "componentType" : 5126, "count" : 23664, "type" : "VEC3", "max" : [6.377738952636719, 12.424266815185547, 2.618169069290161], "min" : [-6.377738952636719, -0.9608839750289917, -2.596276044845581], "name" : "POSITION"}, {"bufferView" : 1, "byteOffset" : 12, "componentType" : 5126, "count" : 23664, "type" : "VEC3", "max" : [0.9995100498199463, 1.0000044107437134, 1.0000044107437134], "min" : [-0.9995100498199463, -1.0000044107437134, -1.0000044107437134], "name" : "NORMAL"}, {"bufferView" : 1, "byteOffset" : 24, "componentType" : 5126, "count" : 23664, "type" : "VEC2", "max" : [0.9911569952964783, -0.03738749027252197], "min" : [0.024792809039354324, -0.9906060099601746], "name" : "TEXCOORD_0"}], "asset" : {"generator" : "Aspose.3D 22.1", "version" : "2.0"}, "buffers" : [{"uri" : "data:application/octet-stream;base64,", "byteLength" : 804584}], "bufferViews" : [{"buffer" : 0, "byteOffset" : 0, "byteLength" : 47328, "target" : 34963}, {"buffer" : 0, "byteOffset" : 47332, "byteLength" : 757248, "byteStride" : 32, "target" : 34962}], "materials" : [{"name" : "", "pbrMetallicRoughness" : {"baseColorFactor" : [0.5, 0.5, 0.5, 1], "metallicFactor" : 0, "roughnessFactor" : 0}, "emissiveFactor" : [0, 0, 0], "alphaMode" : "OPAQUE", "doubleSided" : false}], "meshes" : [{"primitives" : [{"attributes" : {"POSITION" : 1, "NORMAL" : 2, "TEXCOORD_0" : 3}, "indices" : 0, "material" : 0, "mode" : 4}], "name" : ""}], "nodes" : [{"mesh" : 0, "name" : "headset0001"}], "scene" : 0, "scenes" : [{"nodes" : [0]}]}